{"title":"Unlocking The Truth - Season 01E05 [1080p] WEB-DL","uid":15850183,"size":1666576909,"categoryP":"video","categoryS":"hd___tv_shows","magnet":"?xt=urn:btih:3a6255cb239c821ffc6e8f6591e70fe7a1757001&amp;dn=Unlocking+The+Truth+-+Season+01E05+%5B1080p%5D+WEB-DL+&amp;tr=udp%3A%2F%2Ftracker.leechers-paradise.org%3A6969&amp;tr=udp%3A%2F%2Fzer0day.ch%3A1337&amp;tr=udp%3A%2F%2Fopen.demonii.com%3A1337&amp;tr=udp%3A%2F%2Ftracker.coppersurfer.tk%3A6969&amp;tr=udp%3A%2F%2Fexodus.desync.com%3A6969","seeders":1,"leechers":4,"uploader":"fjn61783","files":2,"time":1474156419,"description":"Unlocking The Truth - Season 01E05 [1080p] WEB-DL \r\n\r\n*Folder includes English .srt files (subtitles) \r\n\r\nFormat : Matroska \r\nFormat version : Version 4 / Version 2 \r\nFile size : 1.55 GiB \r\nDuration : 41 min \r\nOverall bit rate : 5 327 kb/s \r\n\r\nVideo \r\nID : 2 \r\nFormat : AVC \r\nFormat/Info : Advanced Video Codec \r\nFormat profile :    \r\nFormat settings, CABAC : Yes \r\nFormat settings, ReFrames : 4 frames \r\nCodec ID : V_MPEG4/ISO/AVC \r\nDuration : 41 min \r\nBit rate : 5 172 kb/s \r\nWidth : 1 916 pixels \r\nHeight : 1 076 pixels \r\nDisplay aspect ratio : 16:9 \r\nFrame rate mode : Constant \r\nFrame rate : 23.976 (24000/1001) FPS \r\nColor space : YUV \r\nChroma subsampling : 4:2:0 \r\nBit depth : 8 bits \r\nScan type : Progressive \r\nBits/(Pixel*Frame) : 0.105 \r\nStream size : 1.51 GiB (97%) \r\nLanguage : English \r\nDefault : Yes \r\nForced : No \r\n\r\nAudio \r\nID : 1 \r\nFormat : AAC \r\nFormat/Info : Advanced Audio Codec \r\nFormat profile : LC \r\nCodec ID : A_AAC \r\nDuration : 41 min \r\nBit rate : 153 kb/s \r\nChannel(s) : 2 channels \r\nChannel positions : Front: L R \r\nSampling rate : 48.0 kHz \r\nFrame rate : 46.875 FPS (1024 spf) \r\nCompression mode : Lossy \r\nStream size : 45.6 MiB (3%) \r\nLanguage : English \r\nDefault : Yes \r\nForced : No","torrent":{"xt":"urn:btih:3a6255cb239c821ffc6e8f6591e70fe7a1757001","amp;dn":"Unlocking+The+Truth+-+Season+01E05+%5B1080p%5D+WEB-DL+","amp;tr":["udp%3A%2F%2Ftracker.leechers-paradise.org%3A6969","udp%3A%2F%2Fzer0day.ch%3A1337","udp%3A%2F%2Fopen.demonii.com%3A1337","udp%3A%2F%2Ftracker.coppersurfer.tk%3A6969","udp%3A%2F%2Fexodus.desync.com%3A6969"],"infoHash":"3a6255cb239c821ffc6e8f6591e70fe7a1757001","infoHashBuffer":{"type":"Buffer","data":[58,98,85,203,35,156,130,31,252,110,143,101,145,231,15,231,161,117,112,1]},"announce":[],"urlList":[]}}